<svg xmlns="http://www.w3.org/2000/svg" class="rrd-diagram" viewBox="0 0 920 124" width="920" height="124" role="img"><style>.rrd-diagram{--rrd-stroke:#222;--rrd-fill:#fff;--rrd-terminal:#f7f7f7;color:var(--rrd-stroke);font-family:ui-monospace, SFMono-Regular, Menlo, monospace;font-size:15px}.rrd-rail{fill:none;stroke:currentColor;stroke-width:2;stroke-linecap:round;stroke-linejoin:round}.rrd-station rect{fill:var(--rrd-fill);stroke:currentColor;stroke-width:2}.rrd-terminal rect{fill:var(--rrd-terminal)}.rrd-station text{text-anchor:middle;dominant-baseline:central}.rrd-marker{text-anchor:middle;dominant-baseline:central}.rrd-label{font-size:.8em;dominant-baseline:auto}</style><g transform="translate(10 33)"><g class="rrd-rails"><g class="rrd-rail-layer"><path class="rrd-rail" d="M0 40.5H0"/><g transform="translate(0 26)"><g class="rrd-rail-layer"><path class="rrd-rail" d="M0 14.5H0"/><g transform="translate(0 0)"><g class="rrd-rail-layer"><path class="rrd-rail" d="M0 14.5H10M48.3 14.5H58.3"/></g></g><path class="rrd-rail" d="M58.3 14.5H118.038"/></g></g><path class="rrd-rail" d="M118.038 40.5H138.038"/><g transform="translate(138.038 0)"><g class="rrd-rail-layer"><path class="rrd-rail" d="M0 40.5H10Q30 40.5 30 1M685.1119805589308 1Q705.112 1 705.112 40.5H715.112"/><path class="rrd-rail" d="M0 40.5H10Q30 40.5 30 40.5M685.1119805589308 40.5Q705.112 40.5 705.112 40.5H715.112"/><g transform="translate(30 0)"><g class="rrd-rail-layer"><path class="rrd-rail" d="M0 1H655.112"/></g></g><g transform="translate(30 26)"><g class="rrd-rail-layer"><path class="rrd-rail" d="M0 14.5H10Q30 14.5 30 14.5M625.1119805589308 14.5Q645.112 14.5 645.112 14.5H655.112"/><path class="rrd-rail" d="M0 14.5H10Q30 14.5 30 54M625.1119805589308 54Q645.112 54 645.112 14.5H655.112"/><g transform="translate(30 0)"><g class="rrd-rail-layer"><path class="rrd-rail" d="M0 14.5H0"/><g transform="translate(0 0)"><g class="rrd-rail-layer"><path class="rrd-rail" d="M0 14.5H0"/><g transform="translate(0 0)"><g class="rrd-rail-layer"><path class="rrd-rail" d="M0 14.5H10M57.45 14.5H67.45"/></g></g><path class="rrd-rail" d="M67.45 14.5H87.45"/><g transform="translate(87.45 0)"><g class="rrd-rail-layer"><path class="rrd-rail" d="M0 14.5H10M48.3 14.5H58.3"/></g></g><path class="rrd-rail" d="M145.75 14.5H368.423"/></g></g><path class="rrd-rail" d="M368.423 14.5H388.423"/><g transform="translate(388.423 0)"><g class="rrd-rail-layer"><path class="rrd-rail" d="M0 14.5H0"/><g transform="translate(0 0)"><g class="rrd-rail-layer"><path class="rrd-rail" d="M0 14.5H10M57.45 14.5H67.45"/></g></g><path class="rrd-rail" d="M67.45 14.5H170.498"/></g></g><path class="rrd-rail" d="M558.921 14.5H595.112"/></g></g><g transform="translate(30 53)"><g class="rrd-rail-layer"><path class="rrd-rail" d="M0 1H595.112"/></g></g></g></g></g></g><path class="rrd-rail" d="M853.15 40.5H900"/></g></g><g class="rrd-content"><g class="rrd rrd-row"><text class="rrd-label" x="0" y="-6">singleLineComment</text><g transform="translate(0 26)"><g class="rrd rrd-row"><g transform="translate(0 0)"><g class="rrd rrd-station rrd-terminal"><rect x="10" y="0" width="38.3" height="29" rx="10"/><text x="29.15" y="14.5">//</text></g></g></g></g><g transform="translate(138.038 0)"><g class="rrd rrd-stack"><g transform="translate(30 0)"><g class="rrd rrd-empty"></g></g><g transform="translate(30 26)"><g class="rrd rrd-stack"><g transform="translate(30 0)"><g class="rrd rrd-row"><g transform="translate(0 0)"><g class="rrd rrd-row"><g transform="translate(0 0)"><g class="rrd rrd-station rrd-terminal"><rect x="10" y="0" width="47.45" height="29" rx="10"/><text x="33.725" y="14.5">not</text></g></g><g transform="translate(87.45 0)"><g class="rrd rrd-station rrd-terminal"><rect x="10" y="0" width="38.3" height="29" rx="10"/><text x="29.15" y="14.5">\n</text></g></g></g></g><g transform="translate(388.423 0)"><g class="rrd rrd-row"><g transform="translate(0 0)"><g class="rrd rrd-station"><rect x="10" y="0" width="47.45" height="29" rx="2"/><text x="33.725" y="14.5">any</text></g></g></g></g></g></g><g transform="translate(30 53)"><g class="rrd rrd-empty"></g></g></g></g></g></g></g></g></g></svg>