<svg xmlns="http://www.w3.org/2000/svg" class="rrd-diagram" viewBox="0 0 920 124" width="920" height="124" role="img"><style>.rrd-diagram{--rrd-stroke:#222;--rrd-fill:#fff;--rrd-terminal:#f7f7f7;color:var(--rrd-stroke);font-family:ui-monospace, SFMono-Regular, Menlo, monospace;font-size:15px}.rrd-rail{fill:none;stroke:currentColor;stroke-width:2;stroke-linecap:round;stroke-linejoin:round}.rrd-station rect{fill:var(--rrd-fill);stroke:currentColor;stroke-width:2}.rrd-terminal rect{fill:var(--rrd-terminal)}.rrd-station text{text-anchor:middle;dominant-baseline:central}.rrd-marker{text-anchor:middle;dominant-baseline:central}.rrd-label{font-size:.8em;dominant-baseline:auto}</style><g transform="translate(10 33)"><g class="rrd-rails"><g class="rrd-rail-layer"><path class="rrd-rail" d="M0 40.5H0"/><g transform="translate(0 26)"><g class="rrd-rail-layer"><path class="rrd-rail" d="M0 14.5H0"/><g transform="translate(0 0)"><g class="rrd-rail-layer"><path class="rrd-rail" d="M0 14.5H10M84.9 14.5H94.9"/></g></g><path class="rrd-rail" d="M94.9 14.5H203.153"/></g></g><path class="rrd-rail" d="M203.153 40.5H223.153"/><g transform="translate(223.153 0)"><g class="rrd-rail-layer"><path class="rrd-rail" d="M0 40.5H10Q30 40.5 30 1M597.6565112084515 1Q617.657 1 617.657 40.5H627.657"/><path class="rrd-rail" d="M0 40.5H10Q30 40.5 30 40.5M597.6565112084515 40.5Q617.657 40.5 617.657 40.5H627.657"/><g transform="translate(30 0)"><g class="rrd-rail-layer"><path class="rrd-rail" d="M0 1H567.657"/></g></g><g transform="translate(30 26)"><g class="rrd-rail-layer"><path class="rrd-rail" d="M0 14.5H10Q30 14.5 30 14.5M537.6565112084515 14.5Q557.657 14.5 557.657 14.5H567.657"/><path class="rrd-rail" d="M0 14.5H10Q30 14.5 30 54M537.6565112084515 54Q557.657 54 557.657 14.5H567.657"/><g transform="translate(30 0)"><g class="rrd-rail-layer"><path class="rrd-rail" d="M0 14.5H0"/><g transform="translate(0 0)"><g class="rrd-rail-layer"><path class="rrd-rail" d="M0 14.5H10M48.3 14.5H58.3"/></g></g><path class="rrd-rail" d="M58.3 14.5H78.3"/><g transform="translate(78.3 0)"><g class="rrd-rail-layer"><path class="rrd-rail" d="M0 14.5H10M84.9 14.5H94.9"/></g></g><path class="rrd-rail" d="M173.2 14.5H507.657"/></g></g><g transform="translate(30 53)"><g class="rrd-rail-layer"><path class="rrd-rail" d="M0 1H507.657"/></g></g></g></g></g></g><path class="rrd-rail" d="M850.81 40.5H900"/></g></g><g class="rrd-content"><g class="rrd rrd-row"><text class="rrd-label" x="0" y="-6">Expr</text><g transform="translate(0 26)"><g class="rrd rrd-row"><g transform="translate(0 0)"><g class="rrd rrd-station"><rect x="10" y="0" width="74.9" height="29" rx="2"/><text x="47.45" y="14.5">number</text></g></g></g></g><g transform="translate(223.153 0)"><g class="rrd rrd-stack"><g transform="translate(30 0)"><g class="rrd rrd-empty"></g></g><g transform="translate(30 26)"><g class="rrd rrd-stack"><g transform="translate(30 0)"><g class="rrd rrd-row"><g transform="translate(0 0)"><g class="rrd rrd-station"><rect x="10" y="0" width="38.3" height="29" rx="2"/><text x="29.15" y="14.5">op</text></g></g><g transform="translate(78.3 0)"><g class="rrd rrd-station"><rect x="10" y="0" width="74.9" height="29" rx="2"/><text x="47.45" y="14.5">number</text></g></g></g></g><g transform="translate(30 53)"><g class="rrd rrd-empty"></g></g></g></g></g></g></g></g></g></svg>