<svg xmlns="http://www.w3.org/2000/svg" class="rrd-diagram" viewBox="0 0 920 124" width="920" height="124" role="img"><style>.rrd-diagram{--rrd-stroke:#222;--rrd-fill:#fff;--rrd-terminal:#f7f7f7;color:var(--rrd-stroke);font-family:ui-monospace, SFMono-Regular, Menlo, monospace;font-size:15px}.rrd-rail{fill:none;stroke:currentColor;stroke-width:2;stroke-linecap:round;stroke-linejoin:round}.rrd-station rect{fill:var(--rrd-fill);stroke:currentColor;stroke-width:2}.rrd-terminal rect{fill:var(--rrd-terminal)}.rrd-station text{text-anchor:middle;dominant-baseline:central}.rrd-marker{text-anchor:middle;dominant-baseline:central}.rrd-label{font-size:.8em;dominant-baseline:auto}</style><g transform="translate(10 33)"><g class="rrd-rails"><g class="rrd-rail-layer"><path class="rrd-rail" d="M0 40.5H0"/><g transform="translate(0 26)"><g class="rrd-rail-layer"><path class="rrd-rail" d="M0 14.5H0"/><g transform="translate(0 0)"><g class="rrd-rail-layer"><path class="rrd-rail" d="M0 14.5H10M66.6 14.5H76.6"/></g></g><path class="rrd-rail" d="M76.6 14.5H184.868"/></g></g><path class="rrd-rail" d="M184.868 40.5H204.868"/><g transform="translate(204.868 0)"><g class="rrd-rail-layer"><path class="rrd-rail" d="M0 40.5H10Q30 40.5 30 1M611.3668796553235 1Q631.367 1 631.367 40.5H641.367"/><path class="rrd-rail" d="M0 40.5H10Q30 40.5 30 40.5M611.3668796553235 40.5Q631.367 40.5 631.367 40.5H641.367"/><g transform="translate(30 0)"><g class="rrd-rail-layer"><path class="rrd-rail" d="M0 1H581.367"/></g></g><g transform="translate(30 26)"><g class="rrd-rail-layer"><path class="rrd-rail" d="M0 14.5H10Q30 14.5 30 14.5M551.3668796553235 14.5Q571.367 14.5 571.367 14.5H581.367"/><path class="rrd-rail" d="M0 14.5H10Q30 14.5 30 54M551.3668796553235 54Q571.367 54 571.367 14.5H581.367"/><g transform="translate(30 0)"><g class="rrd-rail-layer"><path class="rrd-rail" d="M0 14.5H0"/><g transform="translate(0 0)"><g class="rrd-rail-layer"><path class="rrd-rail" d="M0 14.5H10M39.15 14.5H49.15"/></g></g><path class="rrd-rail" d="M49.15 14.5H69.15"/><g transform="translate(69.15 0)"><g class="rrd-rail-layer"><path class="rrd-rail" d="M0 14.5H10M66.6 14.5H76.6"/></g></g><path class="rrd-rail" d="M145.75 14.5H521.367"/></g></g><g transform="translate(30 53)"><g class="rrd-rail-layer"><path class="rrd-rail" d="M0 1H521.367"/></g></g></g></g></g></g><path class="rrd-rail" d="M846.235 40.5H900"/></g></g><g class="rrd-content"><g class="rrd rrd-row"><text class="rrd-label" x="0" y="-6">Args</text><g transform="translate(0 26)"><g class="rrd rrd-row"><g transform="translate(0 0)"><g class="rrd rrd-station"><rect x="10" y="0" width="56.6" height="29" rx="2"/><text x="38.3" y="14.5">Expr</text></g></g></g></g><g transform="translate(204.868 0)"><g class="rrd rrd-stack"><g transform="translate(30 0)"><g class="rrd rrd-empty"></g></g><g transform="translate(30 26)"><g class="rrd rrd-stack"><g transform="translate(30 0)"><g class="rrd rrd-row"><g transform="translate(0 0)"><g class="rrd rrd-station rrd-terminal"><rect x="10" y="0" width="29.15" height="29" rx="10"/><text x="24.575" y="14.5">,</text></g></g><g transform="translate(69.15 0)"><g class="rrd rrd-station"><rect x="10" y="0" width="56.6" height="29" rx="2"/><text x="38.3" y="14.5">Expr</text></g></g></g></g><g transform="translate(30 53)"><g class="rrd rrd-empty"></g></g></g></g></g></g></g></g></g></svg>