<svg xmlns="http://www.w3.org/2000/svg" class="rrd-diagram" viewBox="0 0 920 98" width="920" height="98" role="img"><style>.rrd-diagram{--rrd-stroke:#222;--rrd-fill:#fff;--rrd-terminal:#f7f7f7;color:var(--rrd-stroke);font-family:ui-monospace, SFMono-Regular, Menlo, monospace;font-size:15px}.rrd-rail{fill:none;stroke:currentColor;stroke-width:2;stroke-linecap:round;stroke-linejoin:round}.rrd-station rect{fill:var(--rrd-fill);stroke:currentColor;stroke-width:2}.rrd-terminal rect{fill:var(--rrd-terminal)}.rrd-station text{text-anchor:middle;dominant-baseline:central}.rrd-marker{text-anchor:middle;dominant-baseline:central}.rrd-label{font-size:.8em;dominant-baseline:auto}</style><g transform="translate(10 33)"><g class="rrd-rails"><g class="rrd-rail-layer"><path class="rrd-rail" d="M0 40.5H0"/><g transform="translate(0 26)"><g class="rrd-rail-layer"><path class="rrd-rail" d="M0 14.5H10M121.5 14.5H131.5"/></g></g><path class="rrd-rail" d="M131.5 40.5H151.5"/><g transform="translate(151.5 26)"><g class="rrd-rail-layer"><path class="rrd-rail" d="M0 14.5H10M39.15 14.5H49.15"/></g></g><path class="rrd-rail" d="M200.65 40.5H220.65"/><g transform="translate(220.65 0)"><g class="rrd-rail-layer"><path class="rrd-rail" d="M0 40.5H10Q30 40.5 30 1M106.6 1Q126.6 1 126.6 40.5H136.6"/><path class="rrd-rail" d="M0 40.5H10Q30 40.5 30 40.5M106.6 40.5Q126.6 40.5 126.6 40.5H136.6"/><g transform="translate(30 0)"><g class="rrd-rail-layer"><path class="rrd-rail" d="M0 1H76.6"/></g></g><g transform="translate(30 26)"><g class="rrd-rail-layer"><path class="rrd-rail" d="M0 14.5H10M66.6 14.5H76.6"/></g></g></g></g><path class="rrd-rail" d="M357.25 40.5H377.25"/><g transform="translate(377.25 26)"><g class="rrd-rail-layer"><path class="rrd-rail" d="M0 14.5H10M39.15 14.5H49.15"/></g></g><path class="rrd-rail" d="M426.4 40.5H900"/></g></g><g class="rrd-content"><g class="rrd rrd-row"><text class="rrd-label" x="0" y="-6">CallExpr</text><g transform="translate(0 26)"><g class="rrd rrd-station"><rect x="10" y="0" width="111.5" height="29" rx="2"/><text x="65.75" y="14.5">identifier</text></g></g><g transform="translate(151.5 26)"><g class="rrd rrd-station rrd-terminal"><rect x="10" y="0" width="29.15" height="29" rx="10"/><text x="24.575" y="14.5">(</text></g></g><g transform="translate(220.65 0)"><g class="rrd rrd-stack"><g transform="translate(30 0)"><g class="rrd rrd-empty"></g></g><g transform="translate(30 26)"><g class="rrd rrd-station"><rect x="10" y="0" width="56.6" height="29" rx="2"/><text x="38.3" y="14.5">Args</text></g></g></g></g><g transform="translate(377.25 26)"><g class="rrd rrd-station rrd-terminal"><rect x="10" y="0" width="29.15" height="29" rx="10"/><text x="24.575" y="14.5">)</text></g></g></g></g></g></svg>