<svg xmlns="http://www.w3.org/2000/svg" class="rrd-diagram" viewBox="0 0 596.6 525" width="596.6" height="525" role="img" aria-label="Railroad diagram"><title>Railroad diagram</title><style>.rrd-diagram{--rrd-stroke:#222;--rrd-fill:#fff;--rrd-terminal:#f7f7f7;--rrd-text:var(--rrd-stroke);color:var(--rrd-stroke);font-family:ui-monospace, SFMono-Regular, Menlo, monospace;font-size:15px}.rrd-rail{fill:none;stroke:currentColor;stroke-width:2;stroke-linecap:round;stroke-linejoin:round}.rrd-station rect{fill:var(--rrd-fill);stroke:currentColor;stroke-width:2}.rrd-terminal rect{fill:var(--rrd-terminal)}.rrd-station text{fill:var(--rrd-text);text-anchor:middle;dominant-baseline:central}.rrd-marker{fill:var(--rrd-text);text-anchor:middle;dominant-baseline:central}.rrd-label{fill:var(--rrd-text);font-size:.8em;dominant-baseline:auto}</style><g transform="translate(10 10)"><g class="rrd-rails"><g class="rrd-rail-layer"><g transform="translate(20 0)"><g class="rrd-rail-layer"><path class="rrd-rail" d="M0 14.5H0"/><g transform="translate(0 0)"><g class="rrd-rail-layer"><path class="rrd-rail" d="M0 14.5H10M39.15 14.5H49.15"/></g></g><path class="rrd-rail" d="M49.15 14.5H536.6"/></g></g><g transform="translate(20 53)"><g class="rrd-rail-layer"><path class="rrd-rail" d="M0 66.5H0"/><g transform="translate(0 0)"><g class="rrd-rail-layer"><path class="rrd-rail" d="M0 66.5H10Q30 66.5 30 1M506.6 1Q526.6 1 526.6 66.5H536.6"/><path class="rrd-rail" d="M0 66.5H10Q30 66.5 30 66.5M506.6 66.5Q526.6 66.5 526.6 66.5H536.6"/><g transform="translate(30 0)"><g class="rrd-rail-layer"><path class="rrd-rail" d="M0 1H476.6"/></g></g><g transform="translate(30 26)"><g class="rrd-rail-layer"><path class="rrd-rail" d="M0 40.5H10Q30 40.5 30 1M446.6 1Q466.6 1 466.6 40.5H476.6"/><path class="rrd-rail" d="M0 40.5H10Q30 40.5 30 40.5M446.6 40.5Q466.6 40.5 466.6 40.5H476.6"/><g transform="translate(30 0)"><g class="rrd-rail-layer"><path class="rrd-rail" d="M0 1H416.6"/></g></g><g transform="translate(30 26)"><g class="rrd-rail-layer"><path class="rrd-rail" d="M0 14.5H10Q30 14.5 30 14.5M386.6 67.5Q406.6 67.5 406.6 14.5H416.6"/><path class="rrd-rail" d="M0 14.5H10Q30 14.5 30 332.5M386.6 332.5Q406.6 332.5 406.6 14.5H416.6"/><g transform="translate(30 0)"><g class="rrd-rail-layer"><g transform="translate(20 0)"><g class="rrd-rail-layer"><path class="rrd-rail" d="M0 14.5H0"/><g transform="translate(0 0)"><g class="rrd-rail-layer"><path class="rrd-rail" d="M0 14.5H10M84.9 14.5H94.9"/></g></g><path class="rrd-rail" d="M94.9 14.5H114.9"/><g transform="translate(114.9 0)"><g class="rrd-rail-layer"><path class="rrd-rail" d="M0 14.5H10M39.15 14.5H49.15"/></g></g><path class="rrd-rail" d="M164.05 14.5H316.6"/></g></g><g transform="translate(20 53)"><g class="rrd-rail-layer"><path class="rrd-rail" d="M0 14.5H0"/><g transform="translate(0 0)"><g class="rrd-rail-layer"><path class="rrd-rail" d="M0 14.5H10Q30 14.5 30 14.5M286.6 14.5Q306.6 14.5 306.6 14.5H316.6"/><path class="rrd-rail" d="M0 14.5H10Q30 14.5 30 226.5M286.6 226.5Q306.6 226.5 306.6 14.5H316.6"/><g transform="translate(30 0)"><g class="rrd-rail-layer"><path class="rrd-rail" d="M0 14.5H10Q30 14.5 30 14.5M226.60000000000002 14.5Q246.6 14.5 246.6 14.5H256.6"/><path class="rrd-rail" d="M0 14.5H10Q30 14.5 30 173.5M226.60000000000002 173.5Q246.6 173.5 246.6 14.5H256.6"/><g transform="translate(30 0)"><g class="rrd-rail-layer"><path class="rrd-rail" d="M0 14.5H10Q30 14.5 30 14.5M166.60000000000002 14.5Q186.6 14.5 186.6 14.5H196.6"/><path class="rrd-rail" d="M0 14.5H10Q30 14.5 30 120.5M166.60000000000002 120.5Q186.6 120.5 186.6 14.5H196.6"/><g transform="translate(30 0)"><g class="rrd-rail-layer"><path class="rrd-rail" d="M0 14.5H10Q30 14.5 30 14.5M106.6 14.5Q126.6 14.5 126.6 14.5H136.6"/><path class="rrd-rail" d="M0 14.5H10Q30 14.5 30 67.5M106.6 67.5Q126.6 67.5 126.6 14.5H136.6"/><g transform="translate(30 0)"><g class="rrd-rail-layer"><path class="rrd-rail" d="M0 14.5H10M66.6 14.5H76.6"/></g></g><g transform="translate(30 53)"><g class="rrd-rail-layer"><path class="rrd-rail" d="M0 14.5H10M66.6 14.5H76.6"/></g></g></g></g><g transform="translate(30 106)"><g class="rrd-rail-layer"><path class="rrd-rail" d="M0 14.5H0"/><g transform="translate(0 0)"><g class="rrd-rail-layer"><path class="rrd-rail" d="M0 14.5H10M75.75 14.5H85.75"/></g></g><path class="rrd-rail" d="M85.75 14.5H136.6"/></g></g></g></g><g transform="translate(30 159)"><g class="rrd-rail-layer"><path class="rrd-rail" d="M0 14.5H0"/><g transform="translate(0 0)"><g class="rrd-rail-layer"><path class="rrd-rail" d="M0 14.5H10M84.9 14.5H94.9"/></g></g><path class="rrd-rail" d="M94.9 14.5H196.6"/></g></g></g></g><g transform="translate(30 212)"><g class="rrd-rail-layer"><path class="rrd-rail" d="M0 14.5H0"/><g transform="translate(0 0)"><g class="rrd-rail-layer"><path class="rrd-rail" d="M0 14.5H10M84.9 14.5H94.9"/></g></g><path class="rrd-rail" d="M94.9 14.5H256.6"/></g></g></g></g><path class="rrd-rail" d="M316.6 14.5H316.6"/></g></g><path class="rrd-rail" d="M336.6 14.5h10q10 0 10 10v33q0 10 -10 10H20"/></g></g><g transform="translate(30 318)"><g class="rrd-rail-layer"><path class="rrd-rail" d="M0 14.5H307.45"/><g transform="translate(307.45 0)"><g class="rrd-rail-layer"><path class="rrd-rail" d="M0 14.5H10M39.15 14.5H49.15"/></g></g><path class="rrd-rail" d="M356.6 14.5H356.6"/></g></g></g></g></g></g></g></g><path class="rrd-rail" d="M536.6 66.5H536.6"/></g></g><g transform="translate(20 476)"><g class="rrd-rail-layer"><path class="rrd-rail" d="M0 14.5H0"/><g transform="translate(0 0)"><g class="rrd-rail-layer"><path class="rrd-rail" d="M0 14.5H10M39.15 14.5H49.15"/></g></g><path class="rrd-rail" d="M49.15 14.5H536.6"/></g></g><path class="rrd-rail" d="M556.6 14.5h10q10 0 10 10v85q0 10 -10 10H20"/><path class="rrd-rail" d="M556.6 119.5h10q10 0 10 10v351q0 10 -10 10H20"/></g></g><g class="rrd-content"><g class="rrd rrd-wrapped"><g transform="translate(20 0)"><g class="rrd rrd-row"><g transform="translate(0 0)"><g class="rrd rrd-station rrd-terminal"><rect x="10" y="0" width="29.15" height="29" rx="10"/><text x="24.575" y="14.5">{</text></g></g></g></g><g transform="translate(20 53)"><g class="rrd rrd-row"><g transform="translate(0 0)"><g class="rrd rrd-stack"><g transform="translate(30 0)"><g class="rrd rrd-empty"></g></g><g transform="translate(30 26)"><g class="rrd rrd-stack"><g transform="translate(30 0)"><g class="rrd rrd-empty"></g></g><g transform="translate(30 26)"><g class="rrd rrd-stack"><g transform="translate(30 0)"><g class="rrd rrd-wrapped"><g transform="translate(20 0)"><g class="rrd rrd-row"><g transform="translate(0 0)"><g class="rrd rrd-station"><rect x="10" y="0" width="74.9" height="29" rx="2"/><text x="47.45" y="14.5">string</text></g></g><g transform="translate(114.9 0)"><g class="rrd rrd-station rrd-terminal"><rect x="10" y="0" width="29.15" height="29" rx="10"/><text x="24.575" y="14.5">:</text></g></g></g></g><g transform="translate(20 53)"><g class="rrd rrd-row"><g transform="translate(0 0)"><g class="rrd rrd-stack"><g transform="translate(30 0)"><g class="rrd rrd-stack"><g transform="translate(30 0)"><g class="rrd rrd-stack"><g transform="translate(30 0)"><g class="rrd rrd-stack"><g transform="translate(30 0)"><g class="rrd rrd-station rrd-terminal"><rect x="10" y="0" width="56.6" height="29" rx="10"/><text x="38.3" y="14.5">null</text></g></g><g transform="translate(30 53)"><g class="rrd rrd-station rrd-terminal"><rect x="10" y="0" width="56.6" height="29" rx="10"/><text x="38.3" y="14.5">true</text></g></g></g></g><g transform="translate(30 106)"><g class="rrd rrd-row"><g transform="translate(0 0)"><g class="rrd rrd-station rrd-terminal"><rect x="10" y="0" width="65.75" height="29" rx="10"/><text x="42.875" y="14.5">false</text></g></g></g></g></g></g><g transform="translate(30 159)"><g class="rrd rrd-row"><g transform="translate(0 0)"><g class="rrd rrd-station"><rect x="10" y="0" width="74.9" height="29" rx="2"/><text x="47.45" y="14.5">number</text></g></g></g></g></g></g><g transform="translate(30 212)"><g class="rrd rrd-row"><g transform="translate(0 0)"><g class="rrd rrd-station"><rect x="10" y="0" width="74.9" height="29" rx="2"/><text x="47.45" y="14.5">string</text></g></g></g></g></g></g></g></g></g></g><g transform="translate(30 318)"><g class="rrd rrd-row"><g transform="translate(307.45 0)"><g class="rrd rrd-station rrd-terminal"><rect x="10" y="0" width="29.15" height="29" rx="10"/><text x="24.575" y="14.5">,</text></g></g></g></g></g></g></g></g></g></g></g></g><g transform="translate(20 476)"><g class="rrd rrd-row"><g transform="translate(0 0)"><g class="rrd rrd-station rrd-terminal"><rect x="10" y="0" width="29.15" height="29" rx="10"/><text x="24.575" y="14.5">}</text></g></g></g></g></g></g></g></svg>