<svg xmlns="http://www.w3.org/2000/svg" class="rrd-diagram" viewBox="0 0 920 124" width="920" height="124" role="img" aria-label="identifier"><title>identifier</title><style>.rrd-diagram{--rrd-stroke:#222;--rrd-fill:#fff;--rrd-terminal:#f7f7f7;--rrd-text:var(--rrd-stroke);color:var(--rrd-stroke);font-family:ui-monospace, SFMono-Regular, Menlo, monospace;font-size:15px}.rrd-rail{fill:none;stroke:currentColor;stroke-width:2;stroke-linecap:round;stroke-linejoin:round}.rrd-station rect{fill:var(--rrd-fill);stroke:currentColor;stroke-width:2}.rrd-terminal rect{fill:var(--rrd-terminal)}.rrd-station text{fill:var(--rrd-text);text-anchor:middle;dominant-baseline:central}.rrd-marker{fill:var(--rrd-text);text-anchor:middle;dominant-baseline:central}.rrd-label{fill:var(--rrd-text);font-size:.8em;dominant-baseline:auto}</style><g transform="translate(10 33)"><g class="rrd-rails"><g class="rrd-rail-layer"><path class="rrd-rail" d="M0 40.5H0"/><g transform="translate(0 26)"><g class="rrd-rail-layer"><path class="rrd-rail" d="M0 14.5H0"/><g transform="translate(0 0)"><g class="rrd-rail-layer"><path class="rrd-rail" d="M0 14.5H10M57.45 14.5H67.45"/></g></g><path class="rrd-rail" d="M67.45 14.5H87.45"/><g transform="translate(87.45 0)"><g class="rrd-rail-layer"><path class="rrd-rail" d="M0 14.5H10M94.05 14.5H104.05"/></g></g><path class="rrd-rail" d="M191.5 14.5H281.326"/></g></g><path class="rrd-rail" d="M281.326 40.5H301.326"/><g transform="translate(301.326 26)"><g class="rrd-rail-layer"><path class="rrd-rail" d="M0 14.5H0"/><g transform="translate(0 0)"><g class="rrd-rail-layer"><path class="rrd-rail" d="M0 14.5H10M121.5 14.5H131.5"/></g></g><path class="rrd-rail" d="M131.5 14.5H193.182"/></g></g><path class="rrd-rail" d="M494.507 40.5H514.507"/><g transform="translate(514.507 0)"><g class="rrd-rail-layer"><path class="rrd-rail" d="M0 40.5H10q10 0 10 -10V11q0 -10 10 -10H30M326.028 1H336.028q10 0 10 10V30.5q0 10 10 10H356.028"/><path class="rrd-rail" d="M0 40.5H30M326.028 40.5H356.028"/><g transform="translate(30 0)"><g class="rrd-rail-layer"><path class="rrd-rail" d="M0 1H296.028"/></g></g><g transform="translate(30 26)"><g class="rrd-rail-layer"><path class="rrd-rail" d="M0 14.5H30M266.028 14.5H296.028"/><path class="rrd-rail" d="M0 14.5H10q10 0 10 10V44q0 10 10 10H30M266.028 54H276.028q10 0 10 -10V24.5q0 -10 10 -10H296.028"/><g transform="translate(30 0)"><g class="rrd-rail-layer"><path class="rrd-rail" d="M0 14.5H0"/><g transform="translate(0 0)"><g class="rrd-rail-layer"><path class="rrd-rail" d="M0 14.5H10M112.35 14.5H122.35"/></g></g><path class="rrd-rail" d="M122.35 14.5H236.028"/></g></g><g transform="translate(30 53)"><g class="rrd-rail-layer"><path class="rrd-rail" d="M0 1H236.028"/></g></g></g></g></g></g><path class="rrd-rail" d="M870.535 40.5H900"/></g></g><g class="rrd-content"><g class="rrd rrd-row"><text class="rrd-label" x="0" y="-6">identifier</text><g transform="translate(0 26)"><g class="rrd rrd-row"><g transform="translate(0 0)"><g class="rrd rrd-station rrd-terminal"><rect x="10" y="0" width="47.45" height="29" rx="10"/><text x="33.725" y="14.5">not</text></g></g><g transform="translate(87.45 0)"><g class="rrd rrd-station"><rect x="10" y="0" width="84.05" height="29" rx="2"/><text x="52.025" y="14.5">keyword</text></g></g></g></g><g transform="translate(301.326 26)"><g class="rrd rrd-row"><g transform="translate(0 0)"><g class="rrd rrd-station"><rect x="10" y="0" width="111.5" height="29" rx="2"/><text x="65.75" y="14.5">identStart</text></g></g></g></g><g transform="translate(514.507 0)"><g class="rrd rrd-stack"><g transform="translate(30 0)"><g class="rrd rrd-empty"></g></g><g transform="translate(30 26)"><g class="rrd rrd-stack"><g transform="translate(30 0)"><g class="rrd rrd-row"><g transform="translate(0 0)"><g class="rrd rrd-station"><rect x="10" y="0" width="102.35" height="29" rx="2"/><text x="61.175" y="14.5">identPart</text></g></g></g></g><g transform="translate(30 53)"><g class="rrd rrd-empty"></g></g></g></g></g></g></g></g></g></svg>