<svg xmlns="http://www.w3.org/2000/svg" class="rrd-diagram" viewBox="0 0 920 125" width="920" height="125" role="img" aria-label="logicalOp"><title>logicalOp</title><style>.rrd-diagram{--rrd-stroke:#222;--rrd-fill:#fff;--rrd-terminal:#f7f7f7;--rrd-text:var(--rrd-stroke);color:var(--rrd-stroke);font-family:ui-monospace, SFMono-Regular, Menlo, monospace;font-size:15px}.rrd-rail{fill:none;stroke:currentColor;stroke-width:2;stroke-linecap:round;stroke-linejoin:round}.rrd-station rect{fill:var(--rrd-fill);stroke:currentColor;stroke-width:2}.rrd-terminal rect{fill:var(--rrd-terminal)}.rrd-station text{fill:var(--rrd-text);text-anchor:middle;dominant-baseline:central}.rrd-marker{fill:var(--rrd-text);text-anchor:middle;dominant-baseline:central}.rrd-label{fill:var(--rrd-text);font-size:.8em;dominant-baseline:auto}</style><g transform="translate(10 33)"><g class="rrd-rails"><g class="rrd-rail-layer"><path class="rrd-rail" d="M0 14.5H30M870 14.5H900"/><path class="rrd-rail" d="M0 14.5H10q10 0 10 10V57.5q0 10 10 10H30M870 67.5H880q10 0 10 -10V24.5q0 -10 10 -10H900"/><g transform="translate(30 0)"><g class="rrd-rail-layer"><path class="rrd-rail" d="M0 14.5H0"/><g transform="translate(0 0)"><g class="rrd-rail-layer"><path class="rrd-rail" d="M0 14.5H10M57.45 14.5H67.45"/></g></g><path class="rrd-rail" d="M67.45 14.5H840"/></g></g><g transform="translate(30 53)"><g class="rrd-rail-layer"><path class="rrd-rail" d="M0 14.5H0"/><g transform="translate(0 0)"><g class="rrd-rail-layer"><path class="rrd-rail" d="M0 14.5H10M48.3 14.5H58.3"/></g></g><path class="rrd-rail" d="M58.3 14.5H840"/></g></g></g></g><g class="rrd-content"><g class="rrd rrd-stack"><text class="rrd-label" x="0" y="-6">logicalOp</text><g transform="translate(30 0)"><g class="rrd rrd-row"><g transform="translate(0 0)"><g class="rrd rrd-station"><rect x="10" y="0" width="47.45" height="29" rx="2"/><text x="33.725" y="14.5">and</text></g></g></g></g><g transform="translate(30 53)"><g class="rrd rrd-row"><g transform="translate(0 0)"><g class="rrd rrd-station"><rect x="10" y="0" width="38.3" height="29" rx="2"/><text x="29.15" y="14.5">or</text></g></g></g></g></g></g></g></svg>